<svg xmlns="http://www.w3.org/2000/svg" width="226" height="84" fill="none"><path fill="#53565A" d="M32.5 55.58h8.33l5.02 17.18 5.43-17.18h8.09v23.6H54.3V58.94L47.85 79.2h-4.26l-6.33-20.26V79.2H32.5V55.58Zm32.58 0H81v3.86H70.16v5.6H80.3v3.86H70.16v6.37h11.18v3.92H65.06V55.58h.02Zm20.94.05 7.84.03c1.3 0 5.32.02 8.2 2.11 2.98 2.2 4.04 5.92 4.04 9.28 0 7.25-3.91 11.05-8.4 11.87-.88.16-1.87.27-4.29.27h-7.4V55.63Zm5.16 19.67a49 49 0 0 0 2 .05c2.17 0 4.04-.15 5.53-1.64 1.99-1.98 2.12-5.52 2.12-6.66 0-3.33-1.14-6.4-4.33-7.3-1.07-.29-2.4-.44-5.32-.31V75.3Zm19.49-19.8h5.11v23.69h-5.1v-23.7Zm24.08 7.77c-.11-.82-.4-4.15-3.86-4.15-3.78 0-5.35 3.91-5.35 8.78 0 1.4 0 8.09 4.95 8.09 2.13 0 4.18-1.35 4.28-4.47h5.38c-.11 1.4-.24 3.6-2.13 5.55-2.1 2.17-4.76 2.65-6.94 2.65-8.2 0-10.86-6-10.86-11.87 0-7.49 4.2-12.46 10.88-12.46 5.19 0 8.83 3.15 8.83 7.85h-5.18v.03Zm21.89-7.69 8.24 23.6h-5.13l-1.7-5.1h-9.4l-1.77 5.1H142l8.59-23.6h6.04Zm.13 14.7-3.3-10.08-3.5 10.08h6.8Zm11.94-14.68h5.19v19.57h10.19v4.02H168.7V55.6Zm39.93-6.02v-.61a840.75 840.75 0 0 0-50.17-2.94c-8.35-.34-16.73-.42-25.08-.63l-25.08-.21-25.09.18c-8.35.21-16.73.3-25.08.64a838.11 838.11 0 0 0-50.16 2.93v.6h200.66v.04Z"/><path fill="#DA291C" d="M47.5 40.35V4.25h25.11v6.72H57.74v7.51h12.61v6.77h-12.6v8.4h14.84v6.7H47.5Zm29.45 0V4.25h10l8.94 21.3V4.24h9.01v36.1H94.48l-8.25-19.86v19.86h-9.28Zm41.57 0V11.18h-10.4V4.26h31.6v6.92h-10.59v29.17h-10.6Zm49.32 0 10.29-18.93-9.92-17.16h11.17l5.13 11.02 4.82-11.02h10.32l-9.07 17.42 11.12 18.67h-11l-6.14-12.56-5.38 12.56h-11.35ZM30.24 10.76h-4.79v13.62h4.07c3.33 0 4.02-2.14 4.02-3.68V14c0-2.04-1.36-3.23-3.3-3.23ZM14.89 40.35V4.25h18.65c6.78 0 10.56 2.89 10.56 10.85v7.14c0 6.55-3.83 9.28-10.56 9.28h-8.11v8.8H14.89v.03Zm133.16-12.01h6.35l-3.19-12.77-3.16 12.77Zm-12.8 12 11.47-36.08h8.88l12.1 36.09h-9.9l-1.7-5.8h-9.7l-1.63 5.8h-9.52Zm72.27-38.46a5.27 5.27 0 1 0 0 10.52c2.93 0 5.3-2.35 5.3-5.26a5.28 5.28 0 0 0-5.3-5.26Zm4.31 5.23a4.32 4.32 0 0 1-8.64 0 4.3 4.3 0 0 1 4.3-4.28 4.33 4.33 0 0 1 4.34 4.28Z"/><path fill="#DA291C" d="m209.52 8.54-.03-.16c-.08-.6-.16-1.1-.72-1.24.4-.16.88-.48.88-1.38 0-1.58-1.41-1.58-2.08-1.58h-2.04v5.84h1.25V7.75h.93c.37 0 .45.13.53.42l.1.98c.06.37.09.71.11.84v.06h1.41l-.05-.1c-.16-.27-.24-.96-.3-1.41Zm-1.15-2.6c0 .22-.08.75-.8.75h-.82V5.24h.85c.32 0 .77 0 .77.7Z"/></svg>